<svg width="25" height="25" viewBox="0 0 25 25" fill="none" xmlns="http://www.w3.org/2000/svg">
<g clip-path="url(#clip0_624_5423)">
<path d="M25 12.5C25 5.5965 19.4035 0 12.5 0C5.5965 0 0 5.5965 0 12.5C0 18.362 4.036 23.281 9.4805 24.632V16.32H6.903V12.5H9.4805V10.854C9.4805 6.5995 11.406 4.6275 15.583 4.6275C16.375 4.6275 17.7415 4.783 18.3005 4.938V8.4005C18.0055 8.3695 17.493 8.354 16.8565 8.354C14.807 8.354 14.015 9.1305 14.015 11.149V12.5H18.098L17.3965 16.32H14.015V24.9085C20.2045 24.161 25.0005 18.891 25.0005 12.5H25Z" fill="#0866FF"/>
<path d="M17.396 16.3199L18.0975 12.4999H14.0145V11.1489C14.0145 9.13044 14.8065 8.35394 16.856 8.35394C17.4925 8.35394 18.005 8.36944 18.3 8.40044V4.93794C17.741 4.78244 16.3745 4.62744 15.5825 4.62744C11.4055 4.62744 9.48003 6.59944 9.48003 10.8539V12.4999H6.90253V16.3199H9.48003V24.6319C10.447 24.8719 11.4585 24.9999 12.4995 24.9999C13.012 24.9999 13.5175 24.9684 14.014 24.9084V16.3199H17.3955H17.396Z" fill="white"/>
</g>
<defs>
<clipPath id="clip0_624_5423">
<rect width="25" height="25" fill="white"/>
</clipPath>
</defs>
</svg>
