<svg width="25" height="25" viewBox="0 0 25 25" fill="none" xmlns="http://www.w3.org/2000/svg">
<g clip-path="url(#clip0_676_1825)">
<path d="M6.33946 24.9115C5.37248 24.9007 4.41459 24.7234 3.50784 24.3873C2.8457 24.1425 2.24662 23.7529 1.75441 23.2468C1.247 22.7556 0.856785 22.1564 0.612745 21.4936C0.2769 20.5869 0.0997996 19.6291 0.0892157 18.6623C0.014951 17.0549 0 16.5728 0 12.5C0 8.42721 0.0164216 7.94681 0.0884804 6.33824C0.100349 5.37176 0.277667 4.41445 0.612745 3.50784C0.857973 2.84559 1.24764 2.24627 1.75343 1.75343C2.24503 1.24648 2.84439 0.856623 3.50711 0.612745C4.41385 0.276622 5.37174 0.0992717 6.33872 0.0884804C7.94657 0.014951 8.42941 0 12.5 0C16.5706 0 17.0532 0.0164216 18.6618 0.0884804C19.6285 0.100265 20.586 0.277585 21.4929 0.612745C22.1553 0.856945 22.7545 1.24666 23.2463 1.75319C23.753 2.24516 24.1429 2.84451 24.3873 3.50711C24.7235 4.41384 24.9009 5.37173 24.9118 6.33872C24.9853 7.9473 25.0002 8.42892 25.0002 12.5005C25.0002 16.5721 24.9853 17.0537 24.9118 18.6623C24.9001 19.6291 24.7227 20.5868 24.3873 21.4936C24.1335 22.1513 23.7449 22.7485 23.2464 23.2469C22.7479 23.7452 22.1506 24.1337 21.4929 24.3873C20.5862 24.7235 19.6283 24.9009 18.6613 24.9118C17.0542 24.9853 16.5711 25.0002 12.4995 25.0002C8.42794 25.0002 7.94632 24.986 6.33922 24.9118" fill="url(#paint0_radial_676_1825)"/>
<path d="M6.33946 24.9115C5.37248 24.9007 4.41459 24.7234 3.50784 24.3873C2.8457 24.1425 2.24662 23.7529 1.75441 23.2468C1.247 22.7556 0.856785 22.1564 0.612745 21.4936C0.2769 20.5869 0.0997996 19.6291 0.0892157 18.6623C0.014951 17.0549 0 16.5728 0 12.5C0 8.42721 0.0164216 7.94681 0.0884804 6.33824C0.100349 5.37176 0.277667 4.41445 0.612745 3.50784C0.857973 2.84559 1.24764 2.24627 1.75343 1.75343C2.24503 1.24648 2.84439 0.856623 3.50711 0.612745C4.41385 0.276622 5.37174 0.0992717 6.33872 0.0884804C7.94657 0.014951 8.42941 0 12.5 0C16.5706 0 17.0532 0.0164216 18.6618 0.0884804C19.6285 0.100265 20.586 0.277585 21.4929 0.612745C22.1553 0.856945 22.7545 1.24666 23.2463 1.75319C23.753 2.24516 24.1429 2.84451 24.3873 3.50711C24.7235 4.41384 24.9009 5.37173 24.9118 6.33872C24.9853 7.9473 25.0002 8.42892 25.0002 12.5005C25.0002 16.5721 24.9853 17.0537 24.9118 18.6623C24.9001 19.6291 24.7227 20.5868 24.3873 21.4936C24.1335 22.1513 23.7449 22.7485 23.2464 23.2469C22.7479 23.7452 22.1506 24.1337 21.4929 24.3873C20.5862 24.7235 19.6283 24.9009 18.6613 24.9118C17.0542 24.9853 16.5711 25.0002 12.4995 25.0002C8.42794 25.0002 7.94632 24.986 6.33922 24.9118" fill="url(#paint1_radial_676_1825)"/>
<path d="M9.43062 12.5531C9.43067 11.9408 9.61229 11.3423 9.95252 10.8332C10.2927 10.3241 10.7763 9.92733 11.342 9.69307C11.9077 9.45881 12.5302 9.39756 13.1308 9.51709C13.7313 9.63661 14.2829 9.93152 14.7158 10.3645C15.1487 10.7976 15.4435 11.3492 15.5629 11.9498C15.6823 12.5504 15.6209 13.1728 15.3865 13.7385C15.1521 14.3042 14.7552 14.7876 14.246 15.1277C13.7369 15.4678 13.1383 15.6493 12.526 15.6492C11.7049 15.6491 10.9176 15.3228 10.3371 14.7422C9.75662 14.1616 9.43056 13.3741 9.43062 12.5531ZM7.75685 12.5531C7.75685 13.4964 8.03655 14.4184 8.56059 15.2027C9.08462 15.987 9.82946 16.5983 10.7009 16.9592C11.5723 17.3202 12.5313 17.4146 13.4564 17.2306C14.3815 17.0466 15.2313 16.5924 15.8982 15.9254C16.5652 15.2584 17.0194 14.4087 17.2034 13.4835C17.3875 12.5584 17.293 11.5995 16.9321 10.7281C16.5711 9.85662 15.9598 9.11178 15.1755 8.58774C14.3913 8.06371 13.4692 7.784 12.526 7.784C11.8997 7.78397 11.2795 7.90731 10.7009 8.14697C10.1222 8.38663 9.59648 8.73791 9.15362 9.18077C8.71076 9.62363 8.35947 10.1494 8.11981 10.728C7.88015 11.3067 7.75681 11.9268 7.75685 12.5531ZM16.3693 7.59503C16.3693 7.81545 16.4345 8.03095 16.5569 8.21428C16.6793 8.3976 16.8533 8.54052 17.0569 8.62496C17.2605 8.7094 17.4845 8.73157 17.7007 8.68867C17.9169 8.64576 18.1156 8.5397 18.2715 8.38391C18.4274 8.22812 18.5337 8.02959 18.5768 7.81343C18.6199 7.59726 18.5979 7.37317 18.5136 7.16949C18.4294 6.96581 18.2866 6.7917 18.1034 6.66916C17.9202 6.54662 17.7047 6.48116 17.4843 6.48107C17.1888 6.4812 16.9055 6.59859 16.6966 6.80745C16.4876 7.01632 16.3701 7.29958 16.3698 7.59503M8.77425 20.1132C8.18531 20.1067 7.60187 19.9989 7.04949 19.7945C6.6489 19.6401 6.28507 19.4036 5.98143 19.1001C5.6778 18.7965 5.44107 18.4328 5.2865 18.0323C5.08203 17.4799 4.97425 16.8965 4.96788 16.3075C4.92278 15.3286 4.91395 15.0345 4.91395 12.5543C4.91395 10.0742 4.92376 9.78082 4.96788 8.80092C4.97502 8.21204 5.08278 7.62872 5.2865 7.07616C5.44089 6.67544 5.67755 6.31153 5.9812 6.00787C6.28486 5.70422 6.64877 5.46756 7.04949 5.31317C7.60184 5.10871 8.1853 5.00092 8.77425 4.99455C9.75317 4.94945 10.0473 4.94062 12.5265 4.94062C15.0056 4.94062 15.3 4.95018 16.2799 4.99479C16.8688 5.00194 17.4521 5.1097 18.0046 5.31342C18.4054 5.46782 18.7693 5.70448 19.0729 6.00813C19.3766 6.31179 19.6132 6.67569 19.7676 7.0764C19.9721 7.62876 20.0799 8.21222 20.0863 8.80116C20.1314 9.78156 20.1402 10.0742 20.1402 12.5546C20.1402 15.035 20.1311 15.3281 20.0863 16.308C20.0794 16.8969 19.9716 17.4803 19.7676 18.0328C19.6131 18.4333 19.3763 18.797 19.0727 19.1005C18.7691 19.4041 18.4052 19.6406 18.0046 19.795C17.4523 19.9995 16.8688 20.1073 16.2799 20.1137C15.301 20.1588 15.0068 20.1676 12.5265 20.1676C10.0461 20.1676 9.75292 20.1585 8.77425 20.1137M8.69729 3.32224C7.92666 3.33739 7.16419 3.48325 6.44238 3.75361C5.82535 3.99218 5.26498 4.35706 4.79719 4.82484C4.32941 5.29263 3.96453 5.853 3.72596 6.47003C3.45564 7.19185 3.30978 7.95431 3.29459 8.72494C3.24876 9.71513 3.23846 10.0318 3.23846 12.5541C3.23846 15.0764 3.249 15.3928 3.29459 16.3833C3.30978 17.1539 3.45563 17.9164 3.72596 18.6382C3.96454 19.2552 4.32943 19.8156 4.79721 20.2833C5.26499 20.7511 5.82536 21.116 6.44238 21.3546C7.16423 21.6248 7.92667 21.7707 8.69729 21.786C9.68797 21.8311 10.0041 21.8421 12.5265 21.8421C15.0488 21.8421 15.3652 21.8316 16.3556 21.786C17.1262 21.7707 17.8887 21.6249 18.6105 21.3546C19.2275 21.116 19.7879 20.7511 20.2557 20.2833C20.7235 19.8156 21.0884 19.2552 21.3269 18.6382C21.5976 17.9165 21.7435 17.1539 21.7583 16.3833C21.8034 15.3923 21.8137 15.0764 21.8137 12.5541C21.8137 10.0318 21.8032 9.71538 21.7583 8.72494C21.7432 7.95431 21.5973 7.19184 21.3269 6.47003C21.0884 5.85312 20.7236 5.29283 20.2559 4.82506C19.7883 4.35729 19.2281 3.99235 18.6113 3.75361C17.8895 3.48308 17.127 3.33721 16.3564 3.32224C15.3659 3.2769 15.0495 3.26611 12.5277 3.26611C10.0059 3.26611 9.68871 3.27665 8.69777 3.32224" fill="white"/>
</g>
<defs>
<radialGradient id="paint0_radial_676_1825" cx="0" cy="0" r="1" gradientUnits="userSpaceOnUse" gradientTransform="translate(1.61789 24.4525) scale(31.7407)">
<stop offset="0.09" stop-color="#FA8F21"/>
<stop offset="0.78" stop-color="#D82D7E"/>
</radialGradient>
<radialGradient id="paint1_radial_676_1825" cx="0" cy="0" r="1" gradientUnits="userSpaceOnUse" gradientTransform="translate(17.3167 23.6495) scale(27.9321)">
<stop offset="0.64" stop-color="#8C3AAA" stop-opacity="0"/>
<stop offset="1" stop-color="#8C3AAA"/>
</radialGradient>
<clipPath id="clip0_676_1825">
<rect width="25" height="25" fill="white"/>
</clipPath>
</defs>
</svg>
